<?xml version="1.0" encoding="utf-8"?>
<!-- Generator: Adobe Illustrator 15.0.0, SVG Export Plug-In . SVG Version: 6.00 Build 0)  -->
<!DOCTYPE svg PUBLIC "-//W3C//DTD SVG 1.0//EN" "http://www.w3.org/TR/2001/REC-SVG-20010904/DTD/svg10.dtd">
<svg version="1.0" id="Layer_1" xmlns="http://www.w3.org/2000/svg" xmlns:xlink="http://www.w3.org/1999/xlink" x="0px" y="0px"
	 width="1559.055px" height="1559.055px" viewBox="62.973 508.973 1559.055 1559.055"
	 enable-background="new 62.973 508.973 1559.055 1559.055" xml:space="preserve">
<g id="Layer_2">
	<path fill="#86BD42" d="M1078.097,682.762l72.862-132.466l1.379-2.753c4.553-17.092-15.573-28.38-27.732-15.333l-1.725,2.585
		l-73.727,134.011l-16.88-7.062c-121.29-47.852-255.25-47.852-376.542,0l-16.88,7.062l-73.721-134.011l-1.725-2.585
		c-12.166-13.005-32.32-1.85-27.733,15.333l1.376,2.753c0,0.003,72.862,132.466,72.862,132.466l-15.159,7.579
		c-127.826,65.777-211.121,196.555-216.865,340.197l-0.345,16.88h932.921l-0.689-16.88
		c-8.649-143.014-90.864-271.658-216.693-340.023L1078.097,682.762z"/>
</g>
<g id="Layer_1_1_">
	<path fill="#86BD42" d="M377.55,1087.552H217.701l-9.128,0.343l-8.958,1.031c-55.925,8.286-98.256,54.306-102.661,110.589
		l-0.345,8.956l0.345,9.131c4.623,56.641,46.604,101.728,102.661,110.586l8.958,1.033l9.128,0.345H377.55v545.347l0.345,9.476
		c4.363,65.145,56.923,117.363,121.953,121.95l9.301,0.348h669.712l9.302-0.348c65.028-4.59,117.593-56.806,121.949-121.95
		l0.345-9.476v-545.347h159.852l9.128-0.345l8.961-1.033c56.055-8.858,98.034-53.942,102.661-110.586l0.342-9.131l-0.342-8.956
		c-4.404-56.28-46.735-102.303-102.661-110.586l-8.961-1.034l-9.128-0.343h-159.843"/>
	<path fill="#FFFFFF" d="M665.728,842.44l-0.345-5.339l-1.035-4.996c-12.495-42.003-70.918-38.21-78.029,4.996l-0.345,5.339
		l0.345,5.169c7.11,43.207,65.534,46.996,78.029,4.993l1.035-4.993L665.728,842.44z"/>
	<path fill="#FFFFFF" d="M1102.039,842.44l-0.348-5.339l-1.028-4.996c-12.501-42.003-70.92-38.21-78.032,4.996l-0.345,5.339
		l0.345,5.169c7.112,43.207,65.531,46.996,78.032,4.993l1.028-4.993L1102.039,842.44z"/>
</g>
</svg>
